<svg width="50" height="50" viewBox="0 0 50 50" fill="none" xmlns="http://www.w3.org/2000/svg">
<path fill-rule="evenodd"  clip-rule="evenodd" d="M12.5011 25C12.5011 25.4144 12.6657 25.8119 12.9588 26.1049C13.2518 26.3979 13.6492 26.5625 14.0636 26.5625L32.1667 26.5625L25.4574 33.2688C25.3121 33.414 25.1968 33.5865 25.1182 33.7763C25.0396 33.9661 24.9991 34.1696 24.9991 34.375C24.9991 34.5805 25.0396 34.7839 25.1182 34.9737C25.1968 35.1635 25.3121 35.336 25.4574 35.4813C25.6026 35.6265 25.7751 35.7418 25.9649 35.8204C26.1547 35.899 26.3582 35.9395 26.5636 35.9395C26.7691 35.9395 26.9725 35.899 27.1623 35.8204C27.3521 35.7418 27.5246 35.6265 27.6699 35.4813L37.0449 26.1063C37.1904 25.9611 37.3058 25.7887 37.3846 25.5989C37.4634 25.409 37.5039 25.2055 37.5039 25C37.5039 24.7945 37.4634 24.591 37.3846 24.4012C37.3058 24.2113 37.1904 24.0389 37.0449 23.8938L27.6699 14.5188C27.3765 14.2254 26.9785 14.0605 26.5636 14.0605C26.1487 14.0605 25.7508 14.2254 25.4574 14.5188C25.164 14.8122 24.9991 15.2101 24.9991 15.625C24.9991 16.0399 25.164 16.4379 25.4574 16.7313L32.1667 23.4375L14.0636 23.4375C13.6492 23.4375 13.2518 23.6021 12.9588 23.8952C12.6657 24.1882 12.5011 24.5856 12.5011 25Z" fill="orange"/>
</svg>
